<?xml version="1.0" encoding="UTF-8" standalone="no"?>
<!-- Created with Inkscape (http://www.inkscape.org/) -->

<svg
   xmlns:dc="http://purl.org/dc/elements/1.1/"
   xmlns:cc="http://creativecommons.org/ns#"
   xmlns:rdf="http://www.w3.org/1999/02/22-rdf-syntax-ns#"
   xmlns:svg="http://www.w3.org/2000/svg"
   xmlns="http://www.w3.org/2000/svg"
   xmlns:sodipodi="http://sodipodi.sourceforge.net/DTD/sodipodi-0.dtd"
   xmlns:inkscape="http://www.inkscape.org/namespaces/inkscape"
   width="877.67413"
   height="843.14282"
   id="svg2"
   version="1.1"
   inkscape:version="0.48.3.1 r9886"
   sodipodi:docname="WD2petri.svg">
  <defs
     id="defs4">
    <marker
       inkscape:stockid="Arrow1Lend"
       orient="auto"
       refY="0"
       refX="0"
       id="Arrow1Lend"
       style="overflow:visible">
      <path
         id="path3865"
         d="M 0,0 5,-5 -12.5,0 5,5 0,0 z"
         style="fill-rule:evenodd;stroke:#000000;stroke-width:1pt"
         transform="matrix(-0.8,0,0,-0.8,-10,0)"
         inkscape:connector-curvature="0" />
    </marker>
    <marker
       inkscape:stockid="Arrow2Lend"
       orient="auto"
       refY="0"
       refX="0"
       id="Arrow2Lend"
       style="overflow:visible">
      <path
         id="path3883"
         style="fill-rule:evenodd;stroke-width:0.625;stroke-linejoin:round"
         d="M 8.7185878,4.0337352 -2.2072895,0.01601326 8.7185884,-4.0017078 c -1.7454984,2.3720609 -1.7354408,5.6174519 -6e-7,8.035443 z"
         transform="matrix(-1.1,0,0,-1.1,-1.1,0)"
         inkscape:connector-curvature="0" />
    </marker>
    <marker
       inkscape:stockid="Arrow1Mend"
       orient="auto"
       refY="0"
       refX="0"
       id="Arrow1Mend"
       style="overflow:visible">
      <path
         id="path3871"
         d="M 0,0 5,-5 -12.5,0 5,5 0,0 z"
         style="fill-rule:evenodd;stroke:#000000;stroke-width:1pt"
         transform="matrix(-0.4,0,0,-0.4,-4,0)"
         inkscape:connector-curvature="0" />
    </marker>
    <marker
       inkscape:stockid="Arrow1Mend"
       orient="auto"
       refY="0"
       refX="0"
       id="Arrow1Mend-2"
       style="overflow:visible">
      <path
         inkscape:connector-curvature="0"
         id="path3871-9"
         d="M 0,0 5,-5 -12.5,0 5,5 0,0 z"
         style="fill-rule:evenodd;stroke:#000000;stroke-width:1pt"
         transform="matrix(-0.4,0,0,-0.4,-4,0)" />
    </marker>
    <marker
       inkscape:stockid="Arrow1Mend"
       orient="auto"
       refY="0"
       refX="0"
       id="Arrow1Mend-8"
       style="overflow:visible">
      <path
         inkscape:connector-curvature="0"
         id="path3871-2"
         d="M 0,0 5,-5 -12.5,0 5,5 0,0 z"
         style="fill-rule:evenodd;stroke:#000000;stroke-width:1pt"
         transform="matrix(-0.4,0,0,-0.4,-4,0)" />
    </marker>
    <marker
       inkscape:stockid="Arrow1Mend"
       orient="auto"
       refY="0"
       refX="0"
       id="Arrow1Mend-27"
       style="overflow:visible">
      <path
         inkscape:connector-curvature="0"
         id="path3871-6"
         d="M 0,0 5,-5 -12.5,0 5,5 0,0 z"
         style="fill-rule:evenodd;stroke:#000000;stroke-width:1pt"
         transform="matrix(-0.4,0,0,-0.4,-4,0)" />
    </marker>
    <marker
       inkscape:stockid="Arrow1Mend"
       orient="auto"
       refY="0"
       refX="0"
       id="Arrow1Mend-4"
       style="overflow:visible">
      <path
         inkscape:connector-curvature="0"
         id="path3871-0"
         d="M 0,0 5,-5 -12.5,0 5,5 0,0 z"
         style="fill-rule:evenodd;stroke:#000000;stroke-width:1pt"
         transform="matrix(-0.4,0,0,-0.4,-4,0)" />
    </marker>
    <marker
       inkscape:stockid="Arrow1Lend"
       orient="auto"
       refY="0"
       refX="0"
       id="Arrow1Lend-2"
       style="overflow:visible">
      <path
         inkscape:connector-curvature="0"
         id="path3865-6"
         d="M 0,0 5,-5 -12.5,0 5,5 0,0 z"
         style="fill-rule:evenodd;stroke:#000000;stroke-width:1pt"
         transform="matrix(-0.8,0,0,-0.8,-10,0)" />
    </marker>
    <marker
       inkscape:stockid="Arrow1Lend"
       orient="auto"
       refY="0"
       refX="0"
       id="Arrow1Lend-9"
       style="overflow:visible">
      <path
         inkscape:connector-curvature="0"
         id="path3865-67"
         d="M 0,0 5,-5 -12.5,0 5,5 0,0 z"
         style="fill-rule:evenodd;stroke:#000000;stroke-width:1pt"
         transform="matrix(-0.8,0,0,-0.8,-10,0)" />
    </marker>
  </defs>
  <sodipodi:namedview
     id="base"
     pagecolor="#ffffff"
     bordercolor="#666666"
     borderopacity="1.0"
     inkscape:pageopacity="0.0"
     inkscape:pageshadow="2"
     inkscape:zoom="0.7"
     inkscape:cx="240.03171"
     inkscape:cy="420.36637"
     inkscape:document-units="px"
     inkscape:current-layer="layer1"
     showgrid="false"
     inkscape:showpageshadow="false"
     inkscape:window-width="1920"
     inkscape:window-height="1141"
     inkscape:window-x="0"
     inkscape:window-y="27"
     inkscape:window-maximized="1"
     fit-margin-top="30"
     fit-margin-left="30"
     fit-margin-right="30"
     fit-margin-bottom="30" />
  <metadata
     id="metadata7">
    <rdf:RDF>
      <cc:Work
         rdf:about="">
        <dc:format>image/svg+xml</dc:format>
        <dc:type
           rdf:resource="http://purl.org/dc/dcmitype/StillImage" />
        <dc:title></dc:title>
      </cc:Work>
    </rdf:RDF>
  </metadata>
  <g
     inkscape:label="Calque 1"
     inkscape:groupmode="layer"
     id="layer1"
     transform="translate(-27.11161,-86.862184)">
    <rect
       style="fill:none;stroke:#1e0000;stroke-width:1;stroke-miterlimit:4;stroke-opacity:1;stroke-dasharray:none"
       id="rect2985"
       width="431.42859"
       height="684.28571"
       x="442.85715"
       y="162.85715"
       transform="translate(0,52.362183)" />
    <path
       sodipodi:type="arc"
       style="fill:none;stroke:#1e0000;stroke-width:1;stroke-miterlimit:4;stroke-opacity:1;stroke-dasharray:none"
       id="path2987"
       sodipodi:cx="623.57141"
       sodipodi:cy="262.14285"
       sodipodi:rx="42.142857"
       sodipodi:ry="42.142857"
       d="m 665.71427,262.14285 c 0,23.27486 -18.868,42.14286 -42.14286,42.14286 -23.27486,0 -42.14286,-18.868 -42.14286,-42.14286 0,-23.27485 18.868,-42.14285 42.14286,-42.14285 23.27486,0 42.14286,18.868 42.14286,42.14285 z"
       transform="translate(-48.214277,45.219326)" />
    <path
       sodipodi:type="arc"
       style="fill:none;stroke:#1e0000;stroke-width:1;stroke-miterlimit:4;stroke-opacity:1;stroke-dasharray:none"
       id="path2987-4"
       sodipodi:cx="623.57141"
       sodipodi:cy="262.14285"
       sodipodi:rx="42.142857"
       sodipodi:ry="42.142857"
       d="m 665.71427,262.14285 c 0,23.27486 -18.868,42.14286 -42.14286,42.14286 -23.27486,0 -42.14286,-18.868 -42.14286,-42.14286 0,-23.27485 18.868,-42.14285 42.14286,-42.14285 23.27486,0 42.14286,18.868 42.14286,42.14285 z"
       transform="translate(-48.214277,304.50504)" />
    <path
       sodipodi:type="arc"
       style="fill:none;stroke:#1e0000;stroke-width:1;stroke-miterlimit:4;stroke-opacity:1;stroke-dasharray:none"
       id="path2987-4-1"
       sodipodi:cx="623.57141"
       sodipodi:cy="262.14285"
       sodipodi:rx="42.142857"
       sodipodi:ry="42.142857"
       d="m 665.71427,262.14285 c 0,23.27486 -18.868,42.14286 -42.14286,42.14286 -23.27486,0 -42.14286,-18.868 -42.14286,-42.14286 0,-23.27485 18.868,-42.14285 42.14286,-42.14285 23.27486,0 42.14286,18.868 42.14286,42.14285 z"
       transform="translate(-48.214277,544.50504)" />
    <path
       sodipodi:type="arc"
       style="fill:none;stroke:#1e0000;stroke-width:1;stroke-miterlimit:4;stroke-opacity:1;stroke-dasharray:none"
       id="path2987-4-6"
       sodipodi:cx="623.57141"
       sodipodi:cy="262.14285"
       sodipodi:rx="42.142857"
       sodipodi:ry="42.142857"
       d="m 665.71427,262.14285 c 0,23.27486 -18.868,42.14286 -42.14286,42.14286 -23.27486,0 -42.14286,-18.868 -42.14286,-42.14286 0,-23.27485 18.868,-42.14285 42.14286,-42.14285 23.27486,0 42.14286,18.868 42.14286,42.14285 z"
       transform="translate(144.64287,304.50504)" />
    <rect
       style="color:#000000;fill:none;stroke:#1e0000;stroke-width:0.75439888;stroke-linecap:butt;stroke-linejoin:miter;stroke-miterlimit:4;stroke-opacity:1;stroke-dasharray:none;stroke-dashoffset:0;marker:none;visibility:visible;display:inline;overflow:visible;enable-background:accumulate"
       id="rect3811"
       width="120"
       height="27.642859"
       x="517.14282"
       y="423.79077" />
    <rect
       style="color:#000000;fill:none;stroke:#1e0000;stroke-width:0.7346468;stroke-linecap:butt;stroke-linejoin:miter;stroke-miterlimit:4;stroke-opacity:1;stroke-dasharray:none;stroke-dashoffset:0;marker:none;visibility:visible;display:inline;overflow:visible;enable-background:accumulate"
       id="rect3811-7"
       width="120"
       height="26.214287"
       x="518.57141"
       y="673.79077" />
    <path
       style="fill:none;stroke:#000000;stroke-width:1px;stroke-linecap:butt;stroke-linejoin:miter;stroke-opacity:1;marker-end:url(#Arrow2Lend)"
       d="m 574.28572,352.36218 0,67.14286"
       id="path3856"
       inkscape:connector-curvature="0" />
    <path
       style="fill:none;stroke:#000000;stroke-width:1px;stroke-linecap:butt;stroke-linejoin:miter;stroke-opacity:1;marker-end:url(#Arrow1Lend)"
       d="m 575,453.41575 0,67.14286"
       id="path3856-4"
       inkscape:connector-curvature="0" />
    <path
       style="fill:none;stroke:#000000;stroke-width:0.90790302px;stroke-linecap:butt;stroke-linejoin:miter;stroke-opacity:1;marker-end:url(#Arrow1Lend)"
       d="m 575,611.64214 0,55.34504"
       id="path3856-7"
       inkscape:connector-curvature="0" />
    <path
       style="fill:none;stroke:#000000;stroke-width:0.88949245px;stroke-linecap:butt;stroke-linejoin:miter;stroke-opacity:1;marker-end:url(#Arrow1Lend)"
       d="m 576.42857,703.86397 0,53.12321"
       id="path3856-8"
       inkscape:connector-curvature="0" />
    <path
       style="fill:none;stroke:#000000;stroke-width:1px;stroke-linecap:butt;stroke-linejoin:miter;stroke-opacity:1;marker-end:url(#Arrow1Lend)"
       d="m 602.85714,454.13004 c 3.58559,50.51811 75.12538,66.27994 129.28571,84.28572"
       id="path3856-5"
       inkscape:connector-curvature="0"
       sodipodi:nodetypes="cc" />
    <path
       sodipodi:type="arc"
       style="color:#000000;fill:#000000;fill-opacity:1;stroke:#1e0000;stroke-width:1;stroke-linecap:butt;stroke-linejoin:miter;stroke-miterlimit:4;stroke-opacity:1;stroke-dasharray:none;stroke-dashoffset:0;marker:none;visibility:visible;display:inline;overflow:visible;enable-background:accumulate"
       id="path4749"
       sodipodi:cx="577.04962"
       sodipodi:cy="255.26503"
       sodipodi:rx="9.5964489"
       sodipodi:ry="9.5964489"
       d="m 586.64607,255.26503 c 0,5.29997 -4.29648,9.59645 -9.59645,9.59645 -5.29997,0 -9.59645,-4.29648 -9.59645,-9.59645 0,-5.29997 4.29648,-9.59645 9.59645,-9.59645 5.29997,0 9.59645,4.29648 9.59645,9.59645 z"
       transform="translate(-2.0203051,50.341878)" />
    <g
       id="g4772"
       transform="translate(-3.5714278,-151.42857)">
      <path
         transform="translate(-419.2857,48.790758)"
         d="m 665.71427,262.14285 c 0,23.27486 -18.868,42.14286 -42.14286,42.14286 -23.27486,0 -42.14286,-18.868 -42.14286,-42.14286 0,-23.27485 18.868,-42.14285 42.14286,-42.14285 23.27486,0 42.14286,18.868 42.14286,42.14285 z"
         sodipodi:ry="42.142857"
         sodipodi:rx="42.142857"
         sodipodi:cy="262.14285"
         sodipodi:cx="623.57141"
         id="path2987-6"
         style="fill:none;stroke:#1e0000;stroke-width:1;stroke-miterlimit:4;stroke-opacity:1;stroke-dasharray:none"
         sodipodi:type="arc" />
      <path
         transform="translate(-373.09173,53.913318)"
         d="m 586.64607,255.26503 c 0,5.29997 -4.29648,9.59645 -9.59645,9.59645 -5.29997,0 -9.59645,-4.29648 -9.59645,-9.59645 0,-5.29997 4.29648,-9.59645 9.59645,-9.59645 5.29997,0 9.59645,4.29648 9.59645,9.59645 z"
         sodipodi:ry="9.5964489"
         sodipodi:rx="9.5964489"
         sodipodi:cy="255.26503"
         sodipodi:cx="577.04962"
         id="path4749-3"
         style="color:#000000;fill:#000000;fill-opacity:1;stroke:#1e0000;stroke-width:1;stroke-linecap:butt;stroke-linejoin:miter;stroke-miterlimit:4;stroke-opacity:1;stroke-dasharray:none;stroke-dashoffset:0;marker:none;visibility:visible;display:inline;overflow:visible;enable-background:accumulate"
         sodipodi:type="arc" />
    </g>
    <path
       sodipodi:type="arc"
       style="fill:none;stroke:#1e0000;stroke-width:1;stroke-miterlimit:4;stroke-opacity:1;stroke-dasharray:none"
       id="path2987-4-8"
       sodipodi:cx="623.57141"
       sodipodi:cy="262.14285"
       sodipodi:rx="42.142857"
       sodipodi:ry="42.142857"
       d="m 665.71427,262.14285 c 0,23.27486 -18.868,42.14286 -42.14286,42.14286 -23.27486,0 -42.14286,-18.868 -42.14286,-42.14286 0,-23.27485 18.868,-42.14285 42.14286,-42.14285 23.27486,0 42.14286,18.868 42.14286,42.14285 z"
       transform="translate(-422.85713,120.21933)" />
    <path
       sodipodi:type="arc"
       style="fill:none;stroke:#1e0000;stroke-width:1;stroke-miterlimit:4;stroke-opacity:1;stroke-dasharray:none"
       id="path2987-4-1-4"
       sodipodi:cx="623.57141"
       sodipodi:cy="262.14285"
       sodipodi:rx="42.142857"
       sodipodi:ry="42.142857"
       d="m 665.71427,262.14285 c 0,23.27486 -18.868,42.14286 -42.14286,42.14286 -23.27486,0 -42.14286,-18.868 -42.14286,-42.14286 0,-23.27485 18.868,-42.14285 42.14286,-42.14285 23.27486,0 42.14286,18.868 42.14286,42.14285 z"
       transform="translate(-422.85713,558.79076)" />
    <path
       style="fill:none;stroke:#000000;stroke-width:1px;stroke-linecap:butt;stroke-linejoin:miter;stroke-opacity:1;marker-end:url(#Arrow1Lend)"
       d="m 229.64286,343.07646 c 100.72845,-43.7676 303.69681,19.13708 325,77.14286"
       id="path3856-5-2"
       inkscape:connector-curvature="0"
       sodipodi:nodetypes="cc" />
    <path
       style="fill:none;stroke:#000000;stroke-width:1px;stroke-linecap:butt;stroke-linejoin:miter;stroke-opacity:1;marker-end:url(#Arrow1Lend)"
       d="m 548.21429,704.50504 c -4.98584,76.2324 -194.87462,109.13708 -296.42858,110.00001"
       id="path3856-5-2-0"
       inkscape:connector-curvature="0"
       sodipodi:nodetypes="cc" />
    <text
       xml:space="preserve"
       style="font-size:28px;font-style:normal;font-weight:normal;line-height:125%;letter-spacing:0px;word-spacing:0px;fill:#000000;fill-opacity:1;stroke:none;font-family:Sans"
       x="651.42859"
       y="445.21933"
       id="text4860"
       sodipodi:linespacing="125%"><tspan
         sodipodi:role="line"
         id="tspan4862"
         x="651.42859"
         y="445.21933">start</tspan></text>
    <text
       xml:space="preserve"
       style="font-size:28px;font-style:normal;font-weight:normal;line-height:125%;letter-spacing:0px;word-spacing:0px;fill:#000000;fill-opacity:1;stroke:none;font-family:Sans"
       x="654.07745"
       y="693.42255"
       id="text4860-0"
       sodipodi:linespacing="125%"><tspan
         sodipodi:role="line"
         id="tspan4862-0"
         x="654.07745"
         y="693.42255">finish</tspan></text>
    <text
       xml:space="preserve"
       style="font-size:28px;font-style:normal;font-weight:normal;line-height:125%;letter-spacing:0px;word-spacing:0px;fill:#000000;fill-opacity:1;stroke:none;font-family:Sans"
       x="87.93486"
       y="230.56544"
       id="text4860-09"
       sodipodi:linespacing="125%"><tspan
         sodipodi:role="line"
         x="87.93486"
         y="230.56544"
         id="tspan4894">ressources_wait</tspan></text>
    <text
       xml:space="preserve"
       style="font-size:28px;font-style:normal;font-weight:normal;line-height:125%;letter-spacing:0px;word-spacing:0px;fill:#000000;fill-opacity:1;stroke:none;font-family:Sans"
       x="54.568642"
       y="468.26859"
       id="text4860-09-7"
       sodipodi:linespacing="125%"><tspan
         sodipodi:role="line"
         x="54.568642"
         y="468.26859"
         id="tspan4894-0">ressources_available</tspan></text>
    <text
       xml:space="preserve"
       style="font-size:28px;font-style:normal;font-weight:normal;line-height:125%;letter-spacing:0px;word-spacing:0px;fill:#000000;fill-opacity:1;stroke:none;font-family:Sans"
       x="57.911415"
       y="753.98285"
       id="text4860-09-2"
       sodipodi:linespacing="125%"><tspan
         sodipodi:role="line"
         x="57.911415"
         y="753.98285"
         id="tspan4894-8">ressources_returned</tspan></text>
    <text
       xml:space="preserve"
       style="font-size:40px;font-style:normal;font-weight:normal;line-height:125%;letter-spacing:0px;word-spacing:0px;fill:#000000;fill-opacity:1;stroke:none;font-family:Sans"
       x="617.14288"
       y="203.79076"
       id="text4928"
       sodipodi:linespacing="125%"><tspan
         sodipodi:role="line"
         id="tspan4930"
         x="617.14288"
         y="203.79076">WD</tspan></text>
  </g>
</svg>
